<svg width="144" height="41" viewBox="0 0 144 41" fill="none" xmlns="http://www.w3.org/2000/svg">
<path d="M21.0312 20.9688C21.0521 21.1562 21.1146 21.3021 21.2188 21.4062C21.3229 21.4896 21.4479 21.5521 21.5938 21.5938C21.7396 21.6354 21.8958 21.6771 22.0625 21.7188C22.2292 21.7396 22.375 21.7812 22.5 21.8438C22.6458 21.9062 22.7812 22 22.9062 22.125C23.0312 22.2292 23.1667 22.3333 23.3125 22.4375C23.5 22.5417 23.6458 22.6562 23.75 22.7812C23.8542 22.8854 23.9375 23 24 23.125C24.0625 23.25 24.1146 23.3958 24.1562 23.5625C24.2188 23.7292 24.3021 23.9271 24.4062 24.1562C24.5104 24.4479 24.6458 24.75 24.8125 25.0625C24.9792 25.375 25.0833 25.7083 25.125 26.0625C25.1458 26.25 25.1354 26.4688 25.0938 26.7188C25.0521 26.9688 24.9792 27.2292 24.875 27.5C24.7917 27.75 24.6875 27.9896 24.5625 28.2188C24.4583 28.4479 24.3438 28.625 24.2188 28.75C23.7604 29.1667 23.1875 29.5625 22.5 29.9375C21.8333 30.2917 21.1458 30.6354 20.4375 30.9688C20.2917 31.0312 20.1458 31.1042 20 31.1875C19.8542 31.2708 19.7188 31.3438 19.5938 31.4062C19.3854 31.4479 19.1875 31.4479 19 31.4062C18.8333 31.3438 18.6667 31.3333 18.5 31.375C18.3333 31.3958 18.1979 31.4479 18.0938 31.5312C17.9896 31.5938 17.8542 31.6458 17.6875 31.6875C17.3958 31.7917 17.0625 31.8542 16.6875 31.875C16.3333 31.8958 15.9583 31.9375 15.5625 32C15.4167 32.0417 15.2708 32.0521 15.125 32.0312C14.9792 32.0104 14.8333 32.0208 14.6875 32.0625C14.375 32.125 14.0312 32.1979 13.6562 32.2812C13.2812 32.3646 12.8854 32.4062 12.4688 32.4062C11.8854 32.4062 11.3125 32.3854 10.75 32.3438C10.1875 32.3021 9.60417 32.3021 9 32.3438C8.70833 32.3646 8.42708 32.3438 8.15625 32.2812C7.90625 32.2396 7.63542 32.2292 7.34375 32.25C6.76042 32.2708 6.26042 32.3021 5.84375 32.3438C5.44792 32.3854 5.0625 32.4271 4.6875 32.4688C4.3125 32.5104 3.92708 32.5521 3.53125 32.5938C3.13542 32.6562 2.64583 32.6979 2.0625 32.7188C1.6875 32.7188 1.30208 32.6979 0.90625 32.6562C0.510417 32.6354 0.239583 32.4479 0.09375 32.0938C0.135417 31.9896 0.197917 31.9271 0.28125 31.9062C0.364583 31.8646 0.416667 31.7812 0.4375 31.6562C1.02083 31.4896 1.48958 31.2292 1.84375 30.875C2.17708 30.5 2.53125 29.9271 2.90625 29.1562C2.98958 28.9896 3.0625 28.8333 3.125 28.6875C3.1875 28.5417 3.27083 28.3958 3.375 28.25C3.47917 28.0833 3.54167 27.9375 3.5625 27.8125C3.58333 27.6875 3.625 27.5625 3.6875 27.4375C3.77083 27.25 3.8125 27.0625 3.8125 26.875C3.83333 26.6667 3.84375 26.4688 3.84375 26.2812C3.86458 26.0938 3.89583 25.9167 3.9375 25.75C4 25.5833 4.11458 25.4479 4.28125 25.3438C4.23958 25.0729 4.21875 24.7917 4.21875 24.5C4.21875 24.2083 4.28125 23.9062 4.40625 23.5938C4.46875 23.4271 4.55208 23.2917 4.65625 23.1875C4.76042 23.0833 4.83333 22.9688 4.875 22.8438C4.9375 22.6354 4.9375 22.4167 4.875 22.1875C4.83333 21.9375 4.85417 21.6771 4.9375 21.4062C5 21.1771 5.11458 20.9375 5.28125 20.6875C5.46875 20.4375 5.59375 20.1875 5.65625 19.9375C5.76042 19.5 5.82292 19.0625 5.84375 18.625C5.86458 18.1667 5.92708 17.6979 6.03125 17.2188C6.07292 17.0938 6.125 16.9792 6.1875 16.875C6.27083 16.7708 6.33333 16.6458 6.375 16.5C6.47917 16.2083 6.53125 15.875 6.53125 15.5C6.53125 15.125 6.5625 14.7604 6.625 14.4062C6.72917 13.9062 6.84375 13.4688 6.96875 13.0938C7.09375 12.6979 7.10417 12.2917 7 11.875C6.91667 11.5625 6.75 11.2292 6.5 10.875C6.27083 10.5 6.07292 10.2604 5.90625 10.1562C5.65625 9.98958 5.39583 9.875 5.125 9.8125C4.85417 9.72917 4.60417 9.59375 4.375 9.40625C4.14583 9.38542 3.96875 9.34375 3.84375 9.28125C3.73958 9.21875 3.70833 9.10417 3.75 8.9375C3.77083 8.8125 3.85417 8.70833 4 8.625C4.16667 8.54167 4.34375 8.48958 4.53125 8.46875C4.71875 8.44792 4.88542 8.45833 5.03125 8.5C5.19792 8.54167 5.3125 8.625 5.375 8.75C5.625 8.77083 5.9375 8.78125 6.3125 8.78125C6.6875 8.78125 6.97917 8.84375 7.1875 8.96875C7.58333 8.94792 8.07292 8.91667 8.65625 8.875C9.23958 8.8125 9.76042 8.84375 10.2188 8.96875C10.3229 8.98958 10.4271 9.04167 10.5312 9.125C10.6562 9.1875 10.7604 9.21875 10.8438 9.21875C11.0312 9.19792 11.2083 9.10417 11.375 8.9375C11.5417 8.77083 11.7188 8.66667 11.9062 8.625C12.3229 8.625 12.8021 8.60417 13.3438 8.5625C13.9062 8.5 14.4271 8.44792 14.9062 8.40625C15.2812 8.38542 15.6771 8.39583 16.0938 8.4375C16.5104 8.47917 16.8958 8.5 17.25 8.5C17.5417 8.5 17.8438 8.52083 18.1562 8.5625C18.4688 8.58333 18.8333 8.63542 19.25 8.71875C19.75 8.78125 20.2188 8.83333 20.6562 8.875C21.0938 8.91667 21.5417 9.02083 22 9.1875C22.25 9.29167 22.5104 9.42708 22.7812 9.59375C23.0521 9.73958 23.3438 9.86458 23.6562 9.96875C23.9896 10.1146 24.3542 10.2188 24.75 10.2812C25.1458 10.3229 25.4583 10.4062 25.6875 10.5312C25.7917 10.5938 25.875 10.6875 25.9375 10.8125C26 10.9167 26.0833 11 26.1875 11.0625C26.25 11.1042 26.3333 11.1354 26.4375 11.1562C26.5417 11.1562 26.6354 11.1771 26.7188 11.2188C26.9688 11.3854 27.1771 11.6458 27.3438 12C27.5104 12.3542 27.6458 12.7083 27.75 13.0625C27.8333 13.3125 27.8958 13.625 27.9375 14C28 14.3542 28.0208 14.7292 28 15.125C27.9792 15.5 27.9167 15.875 27.8125 16.25C27.7083 16.6042 27.5521 16.9062 27.3438 17.1562C27.3021 17.1979 27.25 17.25 27.1875 17.3125C27.125 17.3542 27.0625 17.4062 27 17.4688C26.75 17.6979 26.4792 17.9167 26.1875 18.125C25.9167 18.3125 25.5729 18.4583 25.1562 18.5625C25.0938 18.8125 24.9896 19.0104 24.8438 19.1562C24.7188 19.2812 24.5625 19.3854 24.375 19.4688C24.1875 19.5521 23.9792 19.625 23.75 19.6875C23.5417 19.7292 23.3229 19.8125 23.0938 19.9375C22.7396 20.125 22.4062 20.3229 22.0938 20.5312C21.8021 20.7188 21.4479 20.8646 21.0312 20.9688ZM13.7188 19.125C13.9271 19.0833 14.1354 19.0208 14.3438 18.9375C14.5521 18.8542 14.7917 18.8021 15.0625 18.7812C15.2083 18.7812 15.3542 18.7917 15.5 18.8125C15.6667 18.8333 15.8438 18.8333 16.0312 18.8125C16.2396 18.7917 16.4792 18.7396 16.75 18.6562C17.0417 18.5521 17.3229 18.4375 17.5938 18.3125C17.8854 18.1875 18.1562 18.0521 18.4062 17.9062C18.6562 17.7396 18.8646 17.5833 19.0312 17.4375C19.1771 17.3125 19.3229 17.1458 19.4688 16.9375C19.6354 16.7292 19.7812 16.5104 19.9062 16.2812C20.0312 16.0521 20.125 15.8125 20.1875 15.5625C20.25 15.3125 20.2708 15.0729 20.25 14.8438C20.2292 14.7396 20.1458 14.5521 20 14.2812C19.875 14.0104 19.7604 13.8125 19.6562 13.6875C19.4896 13.5 19.2083 13.2708 18.8125 13C18.4375 12.7083 18.0729 12.4792 17.7188 12.3125C17.6354 12.2708 17.5521 12.25 17.4688 12.25C17.3854 12.25 17.2917 12.2292 17.1875 12.1875C17.0208 12.125 16.8646 12.0208 16.7188 11.875C16.5729 11.7292 16.4375 11.6354 16.3125 11.5938C15.8542 11.4896 15.3854 11.4896 14.9062 11.5938C14.4479 11.6771 14.1354 11.8542 13.9688 12.125C13.9271 12.2292 13.9167 12.3333 13.9375 12.4375C13.9583 12.5417 13.9479 12.6354 13.9062 12.7188C13.8438 12.8229 13.75 12.8958 13.625 12.9375C13.5208 12.9792 13.4479 13.0833 13.4062 13.25C13.5938 13.4792 13.6354 13.7396 13.5312 14.0312C13.4271 14.3021 13.3229 14.5938 13.2188 14.9062C13.0521 15.5104 12.8958 16.125 12.75 16.75C12.6042 17.375 12.4271 17.9688 12.2188 18.5312C12.3646 18.7396 12.5521 18.9062 12.7812 19.0312C13.0312 19.1354 13.3438 19.1667 13.7188 19.125ZM10.8438 23.375C10.7188 23.6667 10.6458 24 10.625 24.375C10.6042 24.7292 10.5521 25.0938 10.4688 25.4688C10.4062 25.7604 10.3125 26.0417 10.1875 26.3125C10.0625 26.5833 9.97917 26.8333 9.9375 27.0625C9.91667 27.1667 9.90625 27.2708 9.90625 27.375C9.92708 27.4792 9.91667 27.5729 9.875 27.6562C9.8125 27.8438 9.70833 28.0625 9.5625 28.3125C9.41667 28.5625 9.375 28.7917 9.4375 29C9.45833 29.125 9.57292 29.2188 9.78125 29.2812C9.98958 29.3438 10.2188 29.3958 10.4688 29.4375C10.7396 29.4792 11 29.5208 11.25 29.5625C11.5208 29.5833 11.7292 29.6042 11.875 29.625C12.0417 29.6667 12.2188 29.6562 12.4062 29.5938C12.6146 29.5312 12.8125 29.4583 13 29.375C13.2083 29.2708 13.3958 29.1771 13.5625 29.0938C13.75 29.0104 13.9062 28.9583 14.0312 28.9375C14.2188 28.8958 14.4167 28.9062 14.625 28.9688C14.8333 29.0104 15.0521 29.0208 15.2812 29C15.8229 28.9583 16.3229 28.7708 16.7812 28.4375C17.2396 28.0833 17.5833 27.7292 17.8125 27.375C18.0625 26.9167 18.2188 26.3542 18.2812 25.6875C18.3438 25.0208 18.3229 24.4479 18.2188 23.9688C18.1771 23.7604 18.0625 23.5208 17.875 23.25C17.7083 22.9583 17.5521 22.7604 17.4062 22.6562C17.3229 22.6146 17.2188 22.5833 17.0938 22.5625C16.9896 22.5208 16.8854 22.4688 16.7812 22.4062C16.6979 22.3646 16.6354 22.3125 16.5938 22.25C16.5521 22.1667 16.4896 22.1042 16.4062 22.0625C16.2604 22 16.0625 21.9792 15.8125 22C15.5625 22 15.3229 21.9688 15.0938 21.9062C14.9688 21.8646 14.8438 21.8125 14.7188 21.75C14.5938 21.6875 14.4792 21.6562 14.375 21.6562C14.2083 21.6146 14.0208 21.6146 13.8125 21.6562C13.625 21.6979 13.4271 21.7188 13.2188 21.7188C12.9896 21.6979 12.7812 21.6771 12.5938 21.6562C12.4062 21.6146 12.2292 21.6146 12.0625 21.6562C11.6667 21.7188 11.3958 21.9167 11.25 22.25C11.125 22.5833 10.9896 22.9583 10.8438 23.375ZM43.1875 23.6875C43.6458 24.0417 44.1146 24.3958 44.5938 24.75C45.0938 25.1042 45.4896 25.5312 45.7812 26.0312C45.7188 26.2188 45.7083 26.375 45.75 26.5C45.7917 26.6042 45.8542 26.7083 45.9375 26.8125C46.0417 26.8958 46.1354 26.9896 46.2188 27.0938C46.3229 27.1771 46.3958 27.2917 46.4375 27.4375C46.5 27.7083 46.4792 28.0208 46.375 28.375C46.2708 28.7083 46.1979 29.0417 46.1562 29.375C46.1146 29.5417 46.0833 29.7188 46.0625 29.9062C46.0625 30.0729 46.0417 30.2396 46 30.4062C45.9167 30.8438 45.8542 31.2604 45.8125 31.6562C45.7708 32.0521 45.8229 32.4688 45.9688 32.9062C46.0729 33.2396 46.25 33.6042 46.5 34C46.7708 34.4167 47.0417 34.6875 47.3125 34.8125C47.4167 34.875 47.5 34.8958 47.5625 34.875C47.625 34.875 47.7083 34.8958 47.8125 34.9375C47.9375 35 48.0312 35.0938 48.0938 35.2188C48.1771 35.3438 48.3125 35.4375 48.5 35.5C48.7917 35.3125 49.1146 35.2604 49.4688 35.3438C49.8229 35.4479 50.1771 35.4896 50.5312 35.4688C50.6354 35.4688 50.7292 35.4375 50.8125 35.375C50.8958 35.3333 50.9792 35.3125 51.0625 35.3125C51.5417 35.2708 52.0312 35.2292 52.5312 35.1875C53.0521 35.1458 53.5521 35.0521 54.0312 34.9062C54.2604 34.8438 54.5 34.7396 54.75 34.5938C55 34.4479 55.25 34.3021 55.5 34.1562C55.8333 33.9479 56.1667 33.7292 56.5 33.5C56.8542 33.2708 57.25 33.2292 57.6875 33.375C57.7083 33.7708 57.6458 34.0833 57.5 34.3125C57.3542 34.5625 57.1667 34.7708 56.9375 34.9375C56.7083 35.125 56.4688 35.3021 56.2188 35.4688C55.9688 35.6354 55.7604 35.8229 55.5938 36.0312C55.2188 36.1354 54.9167 36.2708 54.6875 36.4375C54.4583 36.625 54.1979 36.8125 53.9062 37C53.7396 37.0833 53.5729 37.1458 53.4062 37.1875C53.2604 37.2292 53.1146 37.3021 52.9688 37.4062C52.8021 37.4896 52.6562 37.6042 52.5312 37.75C52.4062 37.8958 52.2708 38.0208 52.125 38.125C51.9583 38.2292 51.7604 38.2917 51.5312 38.3125C51.3229 38.3542 51.125 38.3958 50.9375 38.4375C50.375 38.6042 49.7812 38.7396 49.1562 38.8438C48.5312 38.9688 47.8958 39.0417 47.25 39.0625C46.625 39.1042 46 39.0729 45.375 38.9688C44.75 38.8854 44.1562 38.7188 43.5938 38.4688C43.2812 38.3438 43.0208 38.1771 42.8125 37.9688C42.625 37.7812 42.4167 37.5729 42.1875 37.3438C41.9167 37.1146 41.625 36.8438 41.3125 36.5312C41.0208 36.2396 40.7917 35.9479 40.625 35.6562C40.5625 35.4896 40.5 35.2917 40.4375 35.0625C40.3958 34.8333 40.3438 34.6042 40.2812 34.375C40.2188 34.1458 40.1354 33.8854 40.0312 33.5938C39.9479 33.3229 39.9062 33.0312 39.9062 32.7188C39.8854 32.1979 39.9271 31.6562 40.0312 31.0938C40.1562 30.5104 40.2604 29.9479 40.3438 29.4062C40.4479 28.8438 40.5 28.3125 40.5 27.8125C40.5 27.2917 40.3958 26.8333 40.1875 26.4375C40.125 26.3125 40.0312 26.1979 39.9062 26.0938C39.8021 25.9688 39.6979 25.8333 39.5938 25.6875C39.3646 25.3958 39.1146 25.1354 38.8438 24.9062C38.5729 24.6562 38.1979 24.5 37.7188 24.4375C37.3854 24.3958 37.0104 24.3958 36.5938 24.4375C36.1771 24.4583 35.875 24.5417 35.6875 24.6875C35.3958 24.8542 35.2292 25.125 35.1875 25.5C35.1667 25.8542 35.1146 26.2292 35.0312 26.625C34.9271 27.1042 34.7812 27.5417 34.5938 27.9375C34.4271 28.3333 34.375 28.7812 34.4375 29.2812C34.4792 29.4896 34.5417 29.7396 34.625 30.0312C34.7083 30.3229 34.7917 30.5521 34.875 30.7188C34.9375 30.8646 35.0417 31.0417 35.1875 31.25C35.3333 31.4583 35.3542 31.6458 35.25 31.8125C35.125 31.9792 34.9167 32.0417 34.625 32C34.3333 31.9583 34.0417 31.9271 33.75 31.9062C33.3958 31.8854 33.0938 31.875 32.8438 31.875C32.6146 31.8542 32.3958 31.8542 32.1875 31.875C31.9792 31.875 31.7604 31.8958 31.5312 31.9375C31.3021 31.9583 31.0208 31.9896 30.6875 32.0312C30.5208 32.0521 30.3854 32.0729 30.2812 32.0938C30.1979 32.1146 30.1146 32.1354 30.0312 32.1562C29.9688 32.1979 29.8958 32.2292 29.8125 32.25C29.75 32.2917 29.6458 32.3333 29.5 32.375C29.375 32.4167 29.2604 32.4688 29.1562 32.5312C29.0521 32.6146 28.9479 32.6771 28.8438 32.7188C28.4896 32.8229 28.1042 32.8854 27.6875 32.9062C27.2708 32.9479 26.875 32.9688 26.5 32.9688C26.1458 32.9896 25.7917 32.9792 25.4375 32.9375C25.0625 32.9167 24.7292 32.8542 24.4375 32.75C24.4792 32.5 24.5938 32.3333 24.7812 32.25C24.9688 32.1667 25.125 32.0521 25.25 31.9062C25.7917 31.8021 26.3438 31.5729 26.9062 31.2188C27.4479 30.8438 27.8021 30.3854 27.9688 29.8438C28.0312 29.6562 28.0729 29.4583 28.0938 29.25C28.1146 29.0208 28.1458 28.8021 28.1875 28.5938C28.2917 28.0521 28.3958 27.5 28.5 26.9375C28.6042 26.375 28.7396 25.8125 28.9062 25.25C28.9479 25.1458 29 25.0521 29.0625 24.9688C29.125 24.8854 29.1771 24.7917 29.2188 24.6875C29.3438 24.3333 29.4167 23.9688 29.4375 23.5938C29.4792 23.1979 29.5521 22.8229 29.6562 22.4688C29.7604 22.1979 29.8646 21.9479 29.9688 21.7188C30.0729 21.4688 30.1562 21.2188 30.2188 20.9688C30.2812 20.6979 30.3333 20.4375 30.375 20.1875C30.4375 19.9375 30.5417 19.7083 30.6875 19.5C30.7292 19.1458 30.7708 18.8125 30.8125 18.5C30.8542 18.1875 30.8646 17.8229 30.8438 17.4062C31.0729 17.1354 31.2812 16.8542 31.4688 16.5625C31.6771 16.25 31.8125 15.8854 31.875 15.4688C31.9167 15.2396 31.9062 15.0208 31.8438 14.8125C31.8021 14.6042 31.7812 14.375 31.7812 14.125C31.8021 13.5833 31.8438 13.1042 31.9062 12.6875C31.9896 12.25 32.0521 11.7604 32.0938 11.2188C31.9271 10.8438 31.6667 10.5938 31.3125 10.4688C30.9792 10.3229 30.6146 10.125 30.2188 9.875C30.1562 9.85417 30.0729 9.8125 29.9688 9.75C29.8646 9.6875 29.75 9.625 29.625 9.5625C29.5208 9.47917 29.4271 9.39583 29.3438 9.3125C29.2812 9.22917 29.25 9.15625 29.25 9.09375C29.2708 8.94792 29.3542 8.83333 29.5 8.75C29.6667 8.64583 29.8438 8.58333 30.0312 8.5625C30.2396 8.52083 30.4479 8.51042 30.6562 8.53125C30.8646 8.53125 31.0417 8.54167 31.1875 8.5625C31.7083 8.66667 32.2083 8.77083 32.6875 8.875C33.1667 8.97917 33.6562 9.07292 34.1562 9.15625C34.6771 9.21875 35.2188 9.26042 35.7812 9.28125C36.3646 9.30208 37.0208 9.28125 37.75 9.21875C38.0208 9.19792 38.25 9.16667 38.4375 9.125C38.6458 9.0625 38.875 9.02083 39.125 9C39.4792 8.97917 39.8229 8.94792 40.1562 8.90625C40.5104 8.84375 40.8646 8.83333 41.2188 8.875C41.8646 8.9375 42.4375 8.9375 42.9375 8.875C43.4375 8.79167 43.9688 8.78125 44.5312 8.84375C44.8021 8.88542 45.0521 8.96875 45.2812 9.09375C45.5312 9.19792 45.7708 9.3125 46 9.4375C46.25 9.5625 46.4896 9.67708 46.7188 9.78125C46.9688 9.86458 47.2188 9.91667 47.4688 9.9375C47.8438 10.1667 48.1979 10.4583 48.5312 10.8125C48.8854 11.1667 49.2083 11.5625 49.5 12C49.7292 12.3542 49.9479 12.7604 50.1562 13.2188C50.3646 13.6771 50.5208 14.0625 50.625 14.375C50.7708 14.75 50.8333 15.125 50.8125 15.5C50.7917 15.8542 50.7396 16.1979 50.6562 16.5312C50.4896 17.1354 50.2812 17.6771 50.0312 18.1562C49.7812 18.6354 49.5 19.0938 49.1875 19.5312C48.8958 19.9479 48.5833 20.375 48.25 20.8125C47.9375 21.2292 47.6458 21.6667 47.375 22.125C47.2083 22.1875 47.0417 22.2292 46.875 22.25C46.7292 22.25 46.5833 22.2812 46.4375 22.3438C46.2083 22.4479 46.0104 22.6042 45.8438 22.8125C45.6771 23 45.4583 23.1354 45.1875 23.2188C45.0833 23.2604 44.9688 23.2708 44.8438 23.25C44.7396 23.2292 44.6354 23.2292 44.5312 23.25C44.3021 23.3125 44.0833 23.3958 43.875 23.5C43.6875 23.5833 43.4583 23.6458 43.1875 23.6875ZM41.3438 21.0312C41.6771 20.6146 42.0417 20.2292 42.4375 19.875C42.8333 19.5 43.1458 19.0729 43.375 18.5938C43.4792 18.3646 43.5625 18.0938 43.625 17.7812C43.7083 17.4479 43.7812 17.1354 43.8438 16.8438C43.9479 16.2188 43.9583 15.6667 43.875 15.1875C43.7917 14.7083 43.6458 14.2812 43.4375 13.9062C43.2292 13.5312 42.9688 13.2083 42.6562 12.9375C42.3438 12.6667 42 12.4271 41.625 12.2188C41.3333 12.0521 41.0312 11.875 40.7188 11.6875C40.4271 11.4792 40.0625 11.4375 39.625 11.5625C39.3125 11.75 39.0521 12.0521 38.8438 12.4688C38.6562 12.8854 38.4792 13.2708 38.3125 13.625C38.25 13.7708 38.1771 13.9167 38.0938 14.0625C38.0312 14.2083 37.9792 14.3333 37.9375 14.4375C37.9167 14.5833 37.9167 14.7396 37.9375 14.9062C37.9583 15.0521 37.9479 15.2083 37.9062 15.375C37.8646 15.5208 37.7604 15.625 37.5938 15.6875C37.4271 15.7292 37.3333 15.8229 37.3125 15.9688C37.3125 16.1146 37.3646 16.25 37.4688 16.375C37.5938 16.4792 37.6562 16.6146 37.6562 16.7812C37.6354 17.0312 37.5417 17.3125 37.375 17.625C37.2292 17.9375 37.1354 18.2604 37.0938 18.5938C37.0521 18.9062 36.9792 19.2083 36.875 19.5C36.7917 19.7917 36.6979 20.0833 36.5938 20.375C36.5104 20.6667 36.4271 20.9688 36.3438 21.2812C36.2812 21.5729 36.2604 21.875 36.2812 22.1875C36.6979 22.2708 37.1458 22.3021 37.625 22.2812C38.1042 22.2604 38.5729 22.1979 39.0312 22.0938C39.4896 21.9896 39.9167 21.8542 40.3125 21.6875C40.7292 21.5 41.0729 21.2812 41.3438 21.0312ZM56.3438 31.2188C55.9271 31.2188 55.6146 31.3125 55.4062 31.5C55.2188 31.6667 55.0833 31.8854 55 32.1562C54.75 32.0938 54.4583 32.0833 54.125 32.125C53.8125 32.1667 53.4896 32.2083 53.1562 32.25C52.8438 32.2917 52.5312 32.3125 52.2188 32.3125C51.9271 32.3333 51.6771 32.2812 51.4688 32.1562C51.3646 32.0938 51.2812 32.0104 51.2188 31.9062C51.1562 31.7812 51.0833 31.6667 51 31.5625C50.9167 31.4375 50.8333 31.3229 50.75 31.2188C50.6458 31.1146 50.5833 31.0104 50.5625 30.9062C50.5208 30.7812 50.5521 30.6042 50.6562 30.375C50.7604 30.125 50.8542 29.9479 50.9375 29.8438C51.0208 29.7812 51.1146 29.7292 51.2188 29.6875C51.3438 29.6458 51.4583 29.5833 51.5625 29.5C51.8542 29.2708 52.0625 28.9896 52.1875 28.6562C52.3333 28.3021 52.4583 28.0208 52.5625 27.8125C52.7083 27.7083 52.875 27.6042 53.0625 27.5C53.2708 27.375 53.3542 27.2188 53.3125 27.0312C53.125 26.9271 52.9062 26.8854 52.6562 26.9062C52.4062 26.9062 52.1562 26.8958 51.9062 26.875C51.4896 26.875 51.0729 26.8438 50.6562 26.7812C50.2396 26.7188 49.8646 26.6667 49.5312 26.625C48.9896 26.5208 48.5208 26.2708 48.125 25.875C47.7083 25.4792 47.5312 24.9792 47.5938 24.375C47.7396 24.3125 47.9062 24.2812 48.0938 24.2812C48.2604 24.2812 48.4479 24.2917 48.6562 24.3125C48.8438 24.3333 49.0417 24.3542 49.25 24.375C49.4375 24.375 49.6146 24.3438 49.7812 24.2812C49.9688 24.4062 50.1458 24.4688 50.3125 24.4688C50.4583 24.4688 50.6042 24.4375 50.75 24.375C50.875 24.3125 51 24.25 51.125 24.1875C51.25 24.1042 51.3646 24.0521 51.4688 24.0312C51.5729 24.0104 51.6667 24.0104 51.75 24.0312C51.8333 24.0521 51.9271 24.0625 52.0312 24.0625C52.1979 24.0625 52.3646 24.0417 52.5312 24C52.6979 23.9375 52.8958 23.8854 53.125 23.8438C53.4375 23.8021 53.7604 23.7812 54.0938 23.7812C54.4271 23.7604 54.7083 23.6979 54.9375 23.5938C55.0833 23.5312 55.25 23.4271 55.4375 23.2812C55.625 23.1146 55.7604 22.9688 55.8438 22.8438C55.8854 22.7396 55.8958 22.6458 55.875 22.5625C55.875 22.4583 55.8958 22.3542 55.9375 22.25C56.0417 21.8958 56.2188 21.5833 56.4688 21.3125C56.7396 21.0417 56.9583 20.7396 57.125 20.4062C57.1875 20.2396 57.2292 20.1146 57.25 20.0312C57.2917 19.9479 57.3229 19.875 57.3438 19.8125C57.3646 19.75 57.3854 19.6771 57.4062 19.5938C57.4479 19.5104 57.5208 19.3854 57.625 19.2188C57.8125 18.9271 58 18.6458 58.1875 18.375C58.3958 18.1042 58.6354 17.8438 58.9062 17.5938C58.9062 17.4688 58.9271 17.3646 58.9688 17.2812C59.0104 17.1771 59.0521 17.0729 59.0938 16.9688C59.6562 16.7396 60.1146 16.4375 60.4688 16.0625C60.8229 15.6875 61.1771 15.2917 61.5312 14.875C61.5104 14.6667 61.5521 14.5208 61.6562 14.4375C61.7604 14.3333 61.8125 14.1771 61.8125 13.9688C61.8125 13.8646 61.7708 13.75 61.6875 13.625C61.625 13.4792 61.5938 13.3333 61.5938 13.1875C61.5938 13.0208 61.6562 12.8542 61.7812 12.6875C61.9271 12.5 62.0521 12.3333 62.1562 12.1875C62.3229 12.0208 62.4479 11.8542 62.5312 11.6875C62.6354 11.5208 62.7396 11.3646 62.8438 11.2188C63.0104 11.0312 63.1771 10.8646 63.3438 10.7188C63.5312 10.5729 63.7083 10.3958 63.875 10.1875C63.9583 10.0625 64.0208 9.92708 64.0625 9.78125C64.125 9.61458 64.2188 9.48958 64.3438 9.40625C64.5312 9.28125 64.7917 9.20833 65.125 9.1875C65.4583 9.16667 65.7917 9.14583 66.125 9.125C66.5208 9.10417 66.9479 9.0625 67.4062 9C67.8854 8.91667 68.3542 8.83333 68.8125 8.75C69.2917 8.66667 69.75 8.59375 70.1875 8.53125C70.6458 8.44792 71.0625 8.39583 71.4375 8.375C71.8125 8.33333 72.1667 8.32292 72.5 8.34375C72.8542 8.36458 73.1354 8.33333 73.3438 8.25C73.6354 8.5 73.9271 8.75 74.2188 9C74.5312 9.22917 74.8229 9.47917 75.0938 9.75C75.1771 10.1667 75.25 10.5521 75.3125 10.9062C75.375 11.2604 75.3854 11.6146 75.3438 11.9688C75.3021 12.1354 75.2292 12.2917 75.125 12.4375C75.0417 12.5833 75.0104 12.75 75.0312 12.9375C75.0312 13.25 75.125 13.5625 75.3125 13.875C75.5 14.1667 75.6354 14.4896 75.7188 14.8438C75.7396 15.0104 75.7083 15.1771 75.625 15.3438C75.5625 15.4896 75.5208 15.6458 75.5 15.8125C75.4792 15.9792 75.4896 16.1667 75.5312 16.375C75.5729 16.5625 75.6146 16.7604 75.6562 16.9688C75.6562 17.2188 75.6458 17.4688 75.625 17.7188C75.6042 17.9688 75.6146 18.2292 75.6562 18.5C75.6979 18.7708 75.75 19.0521 75.8125 19.3438C75.875 19.6146 75.8958 19.8958 75.875 20.1875C75.8333 20.4792 75.7708 20.75 75.6875 21C75.625 21.25 75.5938 21.5104 75.5938 21.7812C75.5729 22.1562 75.5938 22.5208 75.6562 22.875C75.7188 23.2083 75.6979 23.5521 75.5938 23.9062C75.7604 24.1146 75.8438 24.3229 75.8438 24.5312C75.8646 24.7396 75.8542 24.9479 75.8125 25.1562C75.7708 25.3646 75.7292 25.5833 75.6875 25.8125C75.6458 26.0208 75.6667 26.2396 75.75 26.4688C75.7917 26.6146 75.875 26.75 76 26.875C76.125 26.9792 76.2083 27.1146 76.25 27.2812C76.3125 27.4896 76.3438 27.75 76.3438 28.0625C76.3646 28.3542 76.375 28.6354 76.375 28.9062C76.3958 29.5729 76.3333 30.1667 76.1875 30.6875C76.0625 31.2083 75.9896 31.7708 75.9688 32.375C75.9688 32.6458 75.9583 32.9479 75.9375 33.2812C75.9375 33.6146 75.8854 33.875 75.7812 34.0625C75.6771 34.1875 75.5104 34.3125 75.2812 34.4375C75.0521 34.5833 74.8542 34.6667 74.6875 34.6875C74.375 34.7083 74.0104 34.625 73.5938 34.4375C73.1979 34.25 72.8958 34.0521 72.6875 33.8438C72.5 33.6354 72.3229 33.4062 72.1562 33.1562C72.0104 32.9062 71.8542 32.6458 71.6875 32.375C71.5417 32.1042 71.3854 31.8542 71.2188 31.625C71.0521 31.375 70.8646 31.1667 70.6562 31C70.5521 30.9375 70.4375 30.875 70.3125 30.8125C70.1875 30.75 70.0938 30.6771 70.0312 30.5938C69.9062 30.3854 69.8333 30.1562 69.8125 29.9062C69.8125 29.6354 69.8229 29.3646 69.8438 29.0938C69.8854 28.8021 69.9167 28.5208 69.9375 28.25C69.9792 27.9792 69.9688 27.7396 69.9062 27.5312C69.8438 27.3229 69.7604 27.1667 69.6562 27.0625C69.5521 26.9375 69.4167 26.8542 69.25 26.8125C69.1042 26.75 68.9271 26.7188 68.7188 26.7188C68.5312 26.6979 68.3021 26.6771 68.0312 26.6562C67.0521 26.5938 66.0417 26.5312 65 26.4688C63.9583 26.4062 62.8958 26.3854 61.8125 26.4062C61.5833 26.4062 61.4167 26.4167 61.3125 26.4375C61.2083 26.4583 61.1146 26.4792 61.0312 26.5C60.9479 26.5 60.8646 26.5104 60.7812 26.5312C60.6979 26.5521 60.5625 26.5625 60.375 26.5625C59.9583 26.5833 59.5833 26.6146 59.25 26.6562C58.9167 26.6771 58.625 26.7812 58.375 26.9688C58.2292 27.0729 58.0729 27.2812 57.9062 27.5938C57.7396 27.9062 57.6146 28.1458 57.5312 28.3125C57.4271 28.5625 57.3333 28.8229 57.25 29.0938C57.1875 29.3646 57.1146 29.6354 57.0312 29.9062C56.9688 30.1562 56.8854 30.3958 56.7812 30.625C56.6771 30.8542 56.5312 31.0521 56.3438 31.2188ZM64.2812 22.9688C64.9896 22.9479 65.6667 22.9375 66.3125 22.9375C66.9792 22.9167 67.6042 22.8854 68.1875 22.8438C68.2708 22.8021 68.3438 22.7708 68.4062 22.75C68.4896 22.7292 68.6146 22.7396 68.7812 22.7812C68.7812 22.6771 68.8333 22.625 68.9375 22.625C69.0417 22.6042 69.125 22.5729 69.1875 22.5312C69.2708 22.3854 69.3125 22.2708 69.3125 22.1875C69.3125 22.0833 69.2917 22 69.25 21.9375C69.2292 21.8542 69.1875 21.7708 69.125 21.6875C69.0833 21.5833 69.0625 21.4479 69.0625 21.2812C69.0625 21.1146 69.0833 20.9479 69.125 20.7812C69.1875 20.5938 69.2292 20.4062 69.25 20.2188C69.2708 20.0729 69.25 19.9167 69.1875 19.75C69.1458 19.5833 69.1354 19.4167 69.1562 19.25C69.1771 19.1042 69.2396 18.9792 69.3438 18.875C69.4479 18.75 69.5 18.6146 69.5 18.4688C69.5 18.3854 69.4792 18.2917 69.4375 18.1875C69.4167 18.0833 69.3958 17.9792 69.375 17.875C69.3542 17.7292 69.3438 17.5833 69.3438 17.4375C69.3646 17.2917 69.3542 17.1667 69.3125 17.0625C69.2708 16.8958 69.1667 16.7396 69 16.5938C68.8333 16.4479 68.7292 16.2917 68.6875 16.125C68.625 15.9167 68.6146 15.6875 68.6562 15.4375C68.7188 15.1667 68.75 14.9062 68.75 14.6562C68.7292 14.3021 68.6979 13.9792 68.6562 13.6875C68.6146 13.3958 68.5104 13.1042 68.3438 12.8125C68.1146 12.6875 67.9375 12.6458 67.8125 12.6875C67.7083 12.7083 67.6146 12.7812 67.5312 12.9062C67.4688 13.0104 67.4062 13.1354 67.3438 13.2812C67.3021 13.4271 67.2188 13.5521 67.0938 13.6562C66.5312 14.1562 66.0938 14.6667 65.7812 15.1875C65.4688 15.6875 65.0833 16.2396 64.625 16.8438C64.4375 17.0729 64.2396 17.3021 64.0312 17.5312C63.8438 17.7604 63.6667 18.0104 63.5 18.2812C63.3542 18.5521 63.2396 18.8333 63.1562 19.125C63.0729 19.4167 63.0521 19.7396 63.0938 20.0938C62.9896 20.2604 62.8958 20.3854 62.8125 20.4688C62.75 20.5312 62.6771 20.5938 62.5938 20.6562C62.5104 20.7188 62.4167 20.7917 62.3125 20.875C62.2292 20.9583 62.125 21.0729 62 21.2188C61.7708 21.5104 61.5208 21.8125 61.25 22.125C60.9792 22.4167 60.8021 22.7396 60.7188 23.0938C61.0938 23.1979 61.4167 23.25 61.6875 23.25C61.9583 23.25 62.2188 23.2396 62.4688 23.2188C62.7396 23.1771 63.0104 23.1354 63.2812 23.0938C63.5729 23.0312 63.9062 22.9896 64.2812 22.9688ZM101.062 8.3125C101.042 8.41667 101.031 8.53125 101.031 8.65625C101.031 8.76042 101.021 8.86458 101 8.96875C100.833 9.11458 100.688 9.20833 100.562 9.25C100.458 9.29167 100.365 9.39583 100.281 9.5625C100.219 9.66667 100.188 9.78125 100.188 9.90625C100.188 10.0312 100.156 10.1458 100.094 10.25C100.031 10.3958 99.875 10.5521 99.625 10.7188C99.3958 10.8646 99.2292 10.9583 99.125 11C99 11.0625 98.8646 11.1146 98.7188 11.1562C98.5938 11.1979 98.4688 11.25 98.3438 11.3125C98.1562 11.3958 98 11.4583 97.875 11.5C97.7708 11.5417 97.6562 11.5729 97.5312 11.5938C97.4062 11.5938 97.2708 11.6042 97.125 11.625C96.9792 11.625 96.7917 11.6458 96.5625 11.6875C96.5 11.6875 96.4583 11.7083 96.4375 11.75C96.4167 11.7708 96.375 11.8021 96.3125 11.8438C96.25 11.8854 96.1562 11.9271 96.0312 11.9688C95.9062 11.9896 95.7188 12.0104 95.4688 12.0312C95.2396 12.0521 95.0625 12.0729 94.9375 12.0938C94.8333 12.0938 94.6562 12.1146 94.4062 12.1562C94.2604 12.1979 94.125 12.2604 94 12.3438C93.875 12.4271 93.7396 12.5 93.5938 12.5625C93.3021 12.7292 93.0833 12.8958 92.9375 13.0625C92.8125 13.2083 92.7083 13.3438 92.625 13.4688C92.5 13.6771 92.4375 13.9167 92.4375 14.1875C92.4583 14.4375 92.4167 14.7083 92.3125 15C92.2292 15.2083 92.0938 15.4167 91.9062 15.625C91.7188 15.8333 91.5833 16.0521 91.5 16.2812C91.4792 16.3854 91.4792 16.5 91.5 16.625C91.5208 16.75 91.5208 16.8854 91.5 17.0312C91.4583 17.3021 91.3646 17.5833 91.2188 17.875C91.0729 18.1458 90.9479 18.4375 90.8438 18.75C90.8021 18.9167 90.7812 19.0833 90.7812 19.25C90.8021 19.4167 90.7917 19.5833 90.75 19.75C90.6875 20.1458 90.5938 20.5729 90.4688 21.0312C90.3438 21.4688 90.2292 21.9062 90.125 22.3438C90.0833 22.5938 90.0625 22.8542 90.0625 23.125C90.0833 23.375 90.0625 23.5938 90 23.7812C89.9583 23.9688 89.875 24.1458 89.75 24.3125C89.6458 24.4792 89.5417 24.6562 89.4375 24.8438C89.3542 25.0104 89.2917 25.1979 89.25 25.4062C89.2292 25.5938 89.2812 25.8021 89.4062 26.0312C89.3438 26.8021 89.2396 27.5833 89.0938 28.375C88.9479 29.1667 88.7604 29.9271 88.5312 30.6562C88.4688 30.8854 88.3646 31.1875 88.2188 31.5625C88.0938 31.9375 87.9688 32.1771 87.8438 32.2812C87.7188 32.3854 87.5521 32.4479 87.3438 32.4688C87.1562 32.5104 86.9583 32.5104 86.75 32.4688C86.5625 32.4271 86.3854 32.3542 86.2188 32.25C86.0521 32.1458 85.9375 32.0208 85.875 31.875C85.75 31.9583 85.6354 32.0729 85.5312 32.2188C85.4479 32.3646 85.3229 32.4792 85.1562 32.5625C84.9479 32.6667 84.7292 32.7083 84.5 32.6875C84.2917 32.6667 84.0729 32.7083 83.8438 32.8125C83.6354 32.8958 83.4479 32.9896 83.2812 33.0938C83.1146 33.2188 82.9479 33.3021 82.7812 33.3438C82.6771 33.3854 82.5729 33.3958 82.4688 33.375C82.3854 33.375 82.3021 33.3958 82.2188 33.4375C82.0938 33.5 82 33.6042 81.9375 33.75C81.875 33.8958 81.7812 34.0104 81.6562 34.0938C81.4896 34.0521 81.3021 34.0208 81.0938 34C80.8854 34 80.7292 33.9479 80.625 33.8438C80.5833 33.3021 80.6667 32.8229 80.875 32.4062C81.0833 32.0104 81.2396 31.6146 81.3438 31.2188C81.4271 30.9896 81.4792 30.7708 81.5 30.5625C81.5417 30.3542 81.5833 30.1146 81.625 29.8438C81.7083 29.5521 81.8125 29.25 81.9375 28.9375C82.0625 28.6042 82.1562 28.2708 82.2188 27.9375C82.2812 27.7083 82.3125 27.4792 82.3125 27.25C82.3333 27 82.3854 26.7604 82.4688 26.5312C82.5104 26.3646 82.6146 26.1875 82.7812 26C82.9479 25.7917 83.0729 25.5729 83.1562 25.3438C83.2396 25.1146 83.3125 24.8542 83.375 24.5625C83.4375 24.2708 83.5208 23.9896 83.625 23.7188C83.7292 23.3646 83.875 23.0625 84.0625 22.8125C84.2708 22.5625 84.3646 22.2812 84.3438 21.9688C84.3438 21.8229 84.3125 21.7083 84.25 21.625C84.1875 21.5417 84.1562 21.4479 84.1562 21.3438C84.1354 21.1771 84.1562 20.9479 84.2188 20.6562C84.2812 20.3646 84.3438 20.1042 84.4062 19.875C84.5104 19.4375 84.6146 19.0417 84.7188 18.6875C84.8229 18.3333 84.9271 17.9792 85.0312 17.625C85.0729 17.4583 85.1042 17.3021 85.125 17.1562C85.1667 16.9896 85.2083 16.8438 85.25 16.7188C85.2917 16.5521 85.3542 16.4167 85.4375 16.3125C85.5417 16.1875 85.6146 16.0625 85.6562 15.9375C85.6979 15.7917 85.7292 15.6146 85.75 15.4062C85.7917 15.1979 85.8438 15 85.9062 14.8125C85.9688 14.6667 86.0312 14.5312 86.0938 14.4062C86.1771 14.2812 86.2292 14.1562 86.25 14.0312C86.2917 13.7604 86.25 13.5104 86.125 13.2812C86.0208 13.0521 85.9688 12.8125 85.9688 12.5625C85.7396 12.3958 85.4688 12.3021 85.1562 12.2812C84.8438 12.2396 84.5417 12.2292 84.25 12.25C83.9583 12.2708 83.6979 12.2917 83.4688 12.3125C83.2396 12.3125 82.9792 12.3229 82.6875 12.3438C82.2083 12.3646 81.7917 12.4062 81.4375 12.4688C81.0833 12.5312 80.7396 12.5938 80.4062 12.6562C80.0938 12.7188 79.7708 12.7708 79.4375 12.8125C79.1042 12.8333 78.7292 12.8333 78.3125 12.8125C78.3542 12.5833 78.3854 12.3438 78.4062 12.0938C78.4062 11.8229 78.4375 11.6042 78.5 11.4375C78.625 11.3333 78.75 11.2812 78.875 11.2812C79 11.2604 79.1354 11.2396 79.2812 11.2188C79.1979 11.0938 79.1562 10.9792 79.1562 10.875C79.1771 10.7708 79.1979 10.6771 79.2188 10.5938C79.2604 10.4896 79.3021 10.3958 79.3438 10.3125C79.4062 10.2083 79.4479 10.1146 79.4688 10.0312C79.5104 9.82292 79.5208 9.61458 79.5 9.40625C79.5 9.19792 79.5938 9.03125 79.7812 8.90625C80.0729 8.88542 80.3333 8.88542 80.5625 8.90625C80.7917 8.92708 81.0104 8.95833 81.2188 9C81.4271 9.02083 81.6354 9.04167 81.8438 9.0625C82.0729 9.08333 82.3333 9.08333 82.625 9.0625C83.2917 9.02083 83.8333 8.96875 84.25 8.90625C84.6875 8.84375 85.2188 8.80208 85.8438 8.78125C86.2812 8.78125 86.6979 8.79167 87.0938 8.8125C87.5104 8.8125 87.8958 8.83333 88.25 8.875C88.625 8.9375 88.8958 8.96875 89.0625 8.96875C89.25 8.96875 89.4167 8.96875 89.5625 8.96875C89.7083 8.94792 89.8646 8.92708 90.0312 8.90625C90.1979 8.88542 90.4479 8.875 90.7812 8.875C91.1354 8.875 91.4688 8.85417 91.7812 8.8125C92.1146 8.75 92.4583 8.72917 92.8125 8.75C93.2083 8.75 93.4792 8.78125 93.625 8.84375C93.7917 8.88542 93.9271 8.92708 94.0312 8.96875C94.1354 9.01042 94.25 9.05208 94.375 9.09375C94.5 9.11458 94.7292 9.10417 95.0625 9.0625C95.2917 9.02083 95.4375 8.97917 95.5 8.9375C95.5625 8.875 95.7083 8.82292 95.9375 8.78125C96.1458 8.76042 96.3542 8.76042 96.5625 8.78125C96.7708 8.78125 96.9896 8.77083 97.2188 8.75C97.8438 8.6875 98.4688 8.58333 99.0938 8.4375C99.7396 8.27083 100.396 8.22917 101.062 8.3125ZM124.094 9.03125C123.76 9.19792 123.427 9.33333 123.094 9.4375C122.781 9.52083 122.458 9.61458 122.125 9.71875C121.771 9.82292 121.417 9.89583 121.062 9.9375C120.729 9.97917 120.385 10.0833 120.031 10.25C119.698 10.4167 119.354 10.7083 119 11.125C118.667 11.5208 118.375 11.9062 118.125 12.2812C117.562 13.1146 117 13.9167 116.438 14.6875C115.875 15.4583 115.312 16.25 114.75 17.0625C114.458 17.4792 114.208 17.9167 114 18.375C113.812 18.8125 113.573 19.2292 113.281 19.625C113.177 19.75 113.052 19.8646 112.906 19.9688C112.781 20.0729 112.677 20.1771 112.594 20.2812C112.469 20.5104 112.385 20.7396 112.344 20.9688C112.302 21.1979 112.229 21.4167 112.125 21.625C112.021 21.8542 111.896 22.0417 111.75 22.1875C111.625 22.3125 111.531 22.4792 111.469 22.6875C111.135 23.0417 110.833 23.4271 110.562 23.8438C110.312 24.2604 110.042 24.7292 109.75 25.25C109.625 25.4583 109.469 25.6771 109.281 25.9062C109.115 26.1354 109.01 26.3438 108.969 26.5312C108.927 26.6354 108.917 26.7292 108.938 26.8125C108.979 26.8958 108.99 26.9896 108.969 27.0938C108.927 27.2396 108.833 27.4167 108.688 27.625C108.542 27.8333 108.417 28.0208 108.312 28.1875C108.167 28.3542 108.031 28.5208 107.906 28.6875C107.781 28.8542 107.667 29.0208 107.562 29.1875C107.271 29.5625 106.99 29.9479 106.719 30.3438C106.469 30.7188 106.188 31.0208 105.875 31.25C105.667 31.3958 105.458 31.5104 105.25 31.5938C105.042 31.6771 104.865 31.7917 104.719 31.9375C104.635 32.0208 104.562 32.1146 104.5 32.2188C104.458 32.3229 104.396 32.4271 104.312 32.5312C104.104 32.7604 103.875 32.9896 103.625 33.2188C103.375 33.4688 103.135 33.6667 102.906 33.8125C102.615 34.0208 102.333 34.0833 102.062 34C101.792 33.9167 101.521 33.7708 101.25 33.5625C101.125 33.4583 101.021 33.3229 100.938 33.1562C100.854 32.9896 100.76 32.8646 100.656 32.7812C100.552 32.6771 100.427 32.625 100.281 32.625C100.135 32.6458 100.01 32.625 99.9062 32.5625C99.7396 32.4792 99.5938 32.375 99.4688 32.25C99.3438 32.125 99.1667 32.0417 98.9375 32C98.8958 31.6458 98.7812 31.3438 98.5938 31.0938C98.4062 30.8438 98.2917 30.5729 98.25 30.2812C98.1875 29.9271 98.1771 29.5729 98.2188 29.2188C98.2812 28.8438 98.2917 28.4792 98.25 28.125C98.2083 27.8958 98.1458 27.6771 98.0625 27.4688C98 27.2396 97.9479 27.0104 97.9062 26.7812C97.8646 26.5521 97.8229 26.3125 97.7812 26.0625C97.7604 25.8125 97.7292 25.5729 97.6875 25.3438C97.6042 25.0312 97.5 24.7292 97.375 24.4375C97.2708 24.125 97.1979 23.8125 97.1562 23.5C97.1146 23.2083 97.1042 22.8958 97.125 22.5625C97.1667 22.2292 97.1875 21.8854 97.1875 21.5312C97.1667 21.2396 97.1562 20.9271 97.1562 20.5938C97.1562 20.2396 97.1771 19.9167 97.2188 19.625C97.2396 19.5208 97.2604 19.4062 97.2812 19.2812C97.3229 19.1562 97.3333 19.0417 97.3125 18.9375C97.3125 18.7083 97.2083 18.4479 97 18.1562C96.8125 17.8438 96.7083 17.5208 96.6875 17.1875C96.6875 16.8333 96.7083 16.4792 96.75 16.125C96.7917 15.75 96.8021 15.375 96.7812 15C96.7604 14.6667 96.7292 14.3333 96.6875 14C96.6458 13.6458 96.6354 13.3021 96.6562 12.9688C96.6562 12.6771 96.6667 12.4271 96.6875 12.2188C96.7292 12.0104 96.7292 11.7917 96.6875 11.5625C96.6458 11.2917 96.5625 10.9896 96.4375 10.6562C96.3333 10.3229 96.3854 9.94792 96.5938 9.53125C96.8229 9.38542 97.1562 9.22917 97.5938 9.0625C98.0521 8.89583 98.5208 8.77083 99 8.6875C99.5 8.60417 99.9583 8.59375 100.375 8.65625C100.812 8.69792 101.125 8.85417 101.312 9.125C101.438 9.29167 101.531 9.51042 101.594 9.78125C101.656 10.0312 101.688 10.3125 101.688 10.625C101.708 10.9167 101.698 11.2188 101.656 11.5312C101.635 11.8229 101.583 12.0938 101.5 12.3438C101.458 12.5104 101.375 12.6875 101.25 12.875C101.146 13.0417 101.042 13.2188 100.938 13.4062C100.854 13.5729 100.802 13.7396 100.781 13.9062C100.76 14.0521 100.833 14.1875 101 14.3125C100.833 14.6042 100.802 14.8854 100.906 15.1562C101.031 15.4062 101.115 15.6667 101.156 15.9375C101.177 16.0833 101.156 16.2396 101.094 16.4062C101.052 16.5521 101.031 16.7083 101.031 16.875C101.031 17.875 101.073 18.8958 101.156 19.9375C101.24 20.9583 101.365 21.9167 101.531 22.8125C101.573 23.0417 101.635 23.2604 101.719 23.4688C101.823 23.6771 101.896 23.8854 101.938 24.0938C101.979 24.4062 101.99 24.7083 101.969 25C101.969 25.2917 101.99 25.5833 102.031 25.875C102.073 26.1667 102.094 26.4479 102.094 26.7188C102.115 26.9896 102.146 27.2396 102.188 27.4688C102.25 27.6979 102.323 27.9167 102.406 28.125C102.51 28.3125 102.677 28.4688 102.906 28.5938C103.052 28.4688 103.146 28.3229 103.188 28.1562C103.25 27.9896 103.292 27.8125 103.312 27.625C103.333 27.4375 103.354 27.25 103.375 27.0625C103.417 26.875 103.49 26.6979 103.594 26.5312C103.74 26.2812 103.865 26.0312 103.969 25.7812C104.01 25.6562 104.031 25.5312 104.031 25.4062C104.052 25.2604 104.083 25.1146 104.125 24.9688C104.188 24.7604 104.302 24.5417 104.469 24.3125C104.635 24.0625 104.771 23.8229 104.875 23.5938C105 23.3438 105.104 23.0938 105.188 22.8438C105.292 22.5729 105.406 22.3333 105.531 22.125C105.698 21.8333 105.885 21.5625 106.094 21.3125C106.323 21.0625 106.521 20.7917 106.688 20.5C106.812 20.2708 106.917 20.0312 107 19.7812C107.104 19.5312 107.219 19.2917 107.344 19.0625C107.448 18.875 107.594 18.7083 107.781 18.5625C107.969 18.3958 108.083 18.1979 108.125 17.9688C108.312 17.9688 108.469 17.9375 108.594 17.875C108.719 17.8125 108.844 17.7396 108.969 17.6562C109.01 17.3438 109.104 17.0625 109.25 16.8125C109.396 16.5625 109.531 16.3021 109.656 16.0312C109.76 15.7604 109.823 15.4792 109.844 15.1875C109.885 14.875 109.969 14.5729 110.094 14.2812C110.135 14.1562 110.219 14.0312 110.344 13.9062C110.49 13.7604 110.635 13.6042 110.781 13.4375C110.885 13.3333 110.969 13.2188 111.031 13.0938C111.094 12.9479 111.167 12.8333 111.25 12.75C111.333 12.625 111.427 12.5104 111.531 12.4062C111.656 12.3021 111.771 12.1979 111.875 12.0938C112.146 11.7396 112.385 11.3125 112.594 10.8125C112.802 10.3125 113.031 9.88542 113.281 9.53125C113.552 9.19792 113.896 8.96875 114.312 8.84375C114.729 8.71875 115.208 8.625 115.75 8.5625C116.292 8.52083 116.792 8.54167 117.25 8.625C117.729 8.70833 118.219 8.76042 118.719 8.78125C118.948 8.78125 119.167 8.75 119.375 8.6875C119.583 8.625 119.802 8.57292 120.031 8.53125C120.385 8.48958 120.74 8.47917 121.094 8.5C121.448 8.5 121.792 8.48958 122.125 8.46875C122.292 8.44792 122.49 8.41667 122.719 8.375C122.948 8.3125 123.156 8.28125 123.344 8.28125C123.552 8.28125 123.729 8.33333 123.875 8.4375C124.021 8.52083 124.094 8.71875 124.094 9.03125ZM120.688 31.2188C120.271 31.2188 119.958 31.3125 119.75 31.5C119.562 31.6667 119.427 31.8854 119.344 32.1562C119.094 32.0938 118.802 32.0833 118.469 32.125C118.156 32.1667 117.833 32.2083 117.5 32.25C117.188 32.2917 116.875 32.3125 116.562 32.3125C116.271 32.3333 116.021 32.2812 115.812 32.1562C115.708 32.0938 115.625 32.0104 115.562 31.9062C115.5 31.7812 115.427 31.6667 115.344 31.5625C115.26 31.4375 115.177 31.3229 115.094 31.2188C114.99 31.1146 114.927 31.0104 114.906 30.9062C114.865 30.7812 114.896 30.6042 115 30.375C115.104 30.125 115.198 29.9479 115.281 29.8438C115.365 29.7812 115.458 29.7292 115.562 29.6875C115.688 29.6458 115.802 29.5833 115.906 29.5C116.198 29.2708 116.406 28.9896 116.531 28.6562C116.677 28.3021 116.802 28.0208 116.906 27.8125C117.052 27.7083 117.219 27.6042 117.406 27.5C117.615 27.375 117.698 27.2188 117.656 27.0312C117.469 26.9271 117.25 26.8854 117 26.9062C116.75 26.9062 116.5 26.8958 116.25 26.875C115.833 26.875 115.417 26.8438 115 26.7812C114.583 26.7188 114.208 26.6667 113.875 26.625C113.333 26.5208 112.865 26.2708 112.469 25.875C112.052 25.4792 111.875 24.9792 111.938 24.375C112.083 24.3125 112.25 24.2812 112.438 24.2812C112.604 24.2812 112.792 24.2917 113 24.3125C113.188 24.3333 113.385 24.3542 113.594 24.375C113.781 24.375 113.958 24.3438 114.125 24.2812C114.312 24.4062 114.49 24.4688 114.656 24.4688C114.802 24.4688 114.948 24.4375 115.094 24.375C115.219 24.3125 115.344 24.25 115.469 24.1875C115.594 24.1042 115.708 24.0521 115.812 24.0312C115.917 24.0104 116.01 24.0104 116.094 24.0312C116.177 24.0521 116.271 24.0625 116.375 24.0625C116.542 24.0625 116.708 24.0417 116.875 24C117.042 23.9375 117.24 23.8854 117.469 23.8438C117.781 23.8021 118.104 23.7812 118.438 23.7812C118.771 23.7604 119.052 23.6979 119.281 23.5938C119.427 23.5312 119.594 23.4271 119.781 23.2812C119.969 23.1146 120.104 22.9688 120.188 22.8438C120.229 22.7396 120.24 22.6458 120.219 22.5625C120.219 22.4583 120.24 22.3542 120.281 22.25C120.385 21.8958 120.562 21.5833 120.812 21.3125C121.083 21.0417 121.302 20.7396 121.469 20.4062C121.531 20.2396 121.573 20.1146 121.594 20.0312C121.635 19.9479 121.667 19.875 121.688 19.8125C121.708 19.75 121.729 19.6771 121.75 19.5938C121.792 19.5104 121.865 19.3854 121.969 19.2188C122.156 18.9271 122.344 18.6458 122.531 18.375C122.74 18.1042 122.979 17.8438 123.25 17.5938C123.25 17.4688 123.271 17.3646 123.312 17.2812C123.354 17.1771 123.396 17.0729 123.438 16.9688C124 16.7396 124.458 16.4375 124.812 16.0625C125.167 15.6875 125.521 15.2917 125.875 14.875C125.854 14.6667 125.896 14.5208 126 14.4375C126.104 14.3333 126.156 14.1771 126.156 13.9688C126.156 13.8646 126.115 13.75 126.031 13.625C125.969 13.4792 125.938 13.3333 125.938 13.1875C125.938 13.0208 126 12.8542 126.125 12.6875C126.271 12.5 126.396 12.3333 126.5 12.1875C126.667 12.0208 126.792 11.8542 126.875 11.6875C126.979 11.5208 127.083 11.3646 127.188 11.2188C127.354 11.0312 127.521 10.8646 127.688 10.7188C127.875 10.5729 128.052 10.3958 128.219 10.1875C128.302 10.0625 128.365 9.92708 128.406 9.78125C128.469 9.61458 128.562 9.48958 128.688 9.40625C128.875 9.28125 129.135 9.20833 129.469 9.1875C129.802 9.16667 130.135 9.14583 130.469 9.125C130.865 9.10417 131.292 9.0625 131.75 9C132.229 8.91667 132.698 8.83333 133.156 8.75C133.635 8.66667 134.094 8.59375 134.531 8.53125C134.99 8.44792 135.406 8.39583 135.781 8.375C136.156 8.33333 136.51 8.32292 136.844 8.34375C137.198 8.36458 137.479 8.33333 137.688 8.25C137.979 8.5 138.271 8.75 138.562 9C138.875 9.22917 139.167 9.47917 139.438 9.75C139.521 10.1667 139.594 10.5521 139.656 10.9062C139.719 11.2604 139.729 11.6146 139.688 11.9688C139.646 12.1354 139.573 12.2917 139.469 12.4375C139.385 12.5833 139.354 12.75 139.375 12.9375C139.375 13.25 139.469 13.5625 139.656 13.875C139.844 14.1667 139.979 14.4896 140.062 14.8438C140.083 15.0104 140.052 15.1771 139.969 15.3438C139.906 15.4896 139.865 15.6458 139.844 15.8125C139.823 15.9792 139.833 16.1667 139.875 16.375C139.917 16.5625 139.958 16.7604 140 16.9688C140 17.2188 139.99 17.4688 139.969 17.7188C139.948 17.9688 139.958 18.2292 140 18.5C140.042 18.7708 140.094 19.0521 140.156 19.3438C140.219 19.6146 140.24 19.8958 140.219 20.1875C140.177 20.4792 140.115 20.75 140.031 21C139.969 21.25 139.938 21.5104 139.938 21.7812C139.917 22.1562 139.938 22.5208 140 22.875C140.062 23.2083 140.042 23.5521 139.938 23.9062C140.104 24.1146 140.188 24.3229 140.188 24.5312C140.208 24.7396 140.198 24.9479 140.156 25.1562C140.115 25.3646 140.073 25.5833 140.031 25.8125C139.99 26.0208 140.01 26.2396 140.094 26.4688C140.135 26.6146 140.219 26.75 140.344 26.875C140.469 26.9792 140.552 27.1146 140.594 27.2812C140.656 27.4896 140.688 27.75 140.688 28.0625C140.708 28.3542 140.719 28.6354 140.719 28.9062C140.74 29.5729 140.677 30.1667 140.531 30.6875C140.406 31.2083 140.333 31.7708 140.312 32.375C140.312 32.6458 140.302 32.9479 140.281 33.2812C140.281 33.6146 140.229 33.875 140.125 34.0625C140.021 34.1875 139.854 34.3125 139.625 34.4375C139.396 34.5833 139.198 34.6667 139.031 34.6875C138.719 34.7083 138.354 34.625 137.938 34.4375C137.542 34.25 137.24 34.0521 137.031 33.8438C136.844 33.6354 136.667 33.4062 136.5 33.1562C136.354 32.9062 136.198 32.6458 136.031 32.375C135.885 32.1042 135.729 31.8542 135.562 31.625C135.396 31.375 135.208 31.1667 135 31C134.896 30.9375 134.781 30.875 134.656 30.8125C134.531 30.75 134.438 30.6771 134.375 30.5938C134.25 30.3854 134.177 30.1562 134.156 29.9062C134.156 29.6354 134.167 29.3646 134.188 29.0938C134.229 28.8021 134.26 28.5208 134.281 28.25C134.323 27.9792 134.312 27.7396 134.25 27.5312C134.188 27.3229 134.104 27.1667 134 27.0625C133.896 26.9375 133.76 26.8542 133.594 26.8125C133.448 26.75 133.271 26.7188 133.062 26.7188C132.875 26.6979 132.646 26.6771 132.375 26.6562C131.396 26.5938 130.385 26.5312 129.344 26.4688C128.302 26.4062 127.24 26.3854 126.156 26.4062C125.927 26.4062 125.76 26.4167 125.656 26.4375C125.552 26.4583 125.458 26.4792 125.375 26.5C125.292 26.5 125.208 26.5104 125.125 26.5312C125.042 26.5521 124.906 26.5625 124.719 26.5625C124.302 26.5833 123.927 26.6146 123.594 26.6562C123.26 26.6771 122.969 26.7812 122.719 26.9688C122.573 27.0729 122.417 27.2812 122.25 27.5938C122.083 27.9062 121.958 28.1458 121.875 28.3125C121.771 28.5625 121.677 28.8229 121.594 29.0938C121.531 29.3646 121.458 29.6354 121.375 29.9062C121.312 30.1562 121.229 30.3958 121.125 30.625C121.021 30.8542 120.875 31.0521 120.688 31.2188ZM128.625 22.9688C129.333 22.9479 130.01 22.9375 130.656 22.9375C131.323 22.9167 131.948 22.8854 132.531 22.8438C132.615 22.8021 132.688 22.7708 132.75 22.75C132.833 22.7292 132.958 22.7396 133.125 22.7812C133.125 22.6771 133.177 22.625 133.281 22.625C133.385 22.6042 133.469 22.5729 133.531 22.5312C133.615 22.3854 133.656 22.2708 133.656 22.1875C133.656 22.0833 133.635 22 133.594 21.9375C133.573 21.8542 133.531 21.7708 133.469 21.6875C133.427 21.5833 133.406 21.4479 133.406 21.2812C133.406 21.1146 133.427 20.9479 133.469 20.7812C133.531 20.5938 133.573 20.4062 133.594 20.2188C133.615 20.0729 133.594 19.9167 133.531 19.75C133.49 19.5833 133.479 19.4167 133.5 19.25C133.521 19.1042 133.583 18.9792 133.688 18.875C133.792 18.75 133.844 18.6146 133.844 18.4688C133.844 18.3854 133.823 18.2917 133.781 18.1875C133.76 18.0833 133.74 17.9792 133.719 17.875C133.698 17.7292 133.688 17.5833 133.688 17.4375C133.708 17.2917 133.698 17.1667 133.656 17.0625C133.615 16.8958 133.51 16.7396 133.344 16.5938C133.177 16.4479 133.073 16.2917 133.031 16.125C132.969 15.9167 132.958 15.6875 133 15.4375C133.062 15.1667 133.094 14.9062 133.094 14.6562C133.073 14.3021 133.042 13.9792 133 13.6875C132.958 13.3958 132.854 13.1042 132.688 12.8125C132.458 12.6875 132.281 12.6458 132.156 12.6875C132.052 12.7083 131.958 12.7812 131.875 12.9062C131.812 13.0104 131.75 13.1354 131.688 13.2812C131.646 13.4271 131.562 13.5521 131.438 13.6562C130.875 14.1562 130.438 14.6667 130.125 15.1875C129.812 15.6875 129.427 16.2396 128.969 16.8438C128.781 17.0729 128.583 17.3021 128.375 17.5312C128.188 17.7604 128.01 18.0104 127.844 18.2812C127.698 18.5521 127.583 18.8333 127.5 19.125C127.417 19.4167 127.396 19.7396 127.438 20.0938C127.333 20.2604 127.24 20.3854 127.156 20.4688C127.094 20.5312 127.021 20.5938 126.938 20.6562C126.854 20.7188 126.76 20.7917 126.656 20.875C126.573 20.9583 126.469 21.0729 126.344 21.2188C126.115 21.5104 125.865 21.8125 125.594 22.125C125.323 22.4167 125.146 22.7396 125.062 23.0938C125.438 23.1979 125.76 23.25 126.031 23.25C126.302 23.25 126.562 23.2396 126.812 23.2188C127.083 23.1771 127.354 23.1354 127.625 23.0938C127.917 23.0312 128.25 22.9896 128.625 22.9688Z" fill="#C02424"/>
</svg>
